<?xml version="1.0" encoding="UTF-8"?>
<svg id="Capa_1" data-name="Capa 1" xmlns="http://www.w3.org/2000/svg" viewBox="0 0 200 400">
  <defs>
    <style>
      .cls-1 {
        fill: #000;
      }

      .cls-1, .cls-2 {
        stroke-width: 0px;
      }

      .cls-3 {
        fill: #000;
        stroke: #000;
        stroke-miterlimit: 10;
        stroke-width: 7px;
      }

      .cls-2 {
        fill: #fff;
      }
    </style>
  </defs>
  <g>
    <path class="cls-2" d="M63.66,396.5c-21.89,0-38.52-.51-52.3-1.6-3.9-.82-5.14-2.04-5.78-3.21-2.76-44.52-2.17-143.51-1.64-230.9.33-54.35.64-105.68.05-135.28.01-1.1.01-2.25.02-3.35.02-6.98.03-12.01,2.02-14.53,1.99-2.52,7.04-3.69,16.38-3.81,13.25-.22,29.86-.33,52.29-.33,12.24,0,24.74.03,36.83.06,11.33.03,22.29.05,32.35.05,6.1,0,11.87,0,17.18-.03,13.13.05,22.18.17,27.68,1.26,5.68,1.1,6.79,2.98,7.31,8.41.59,47.98.47,139.56.35,228.14-.07,51.78-.14,100.7-.06,139.21-.04.79-.07,1.61-.09,2.44-.16,5.54-.49,9.05-3.62,10.73-5.71,2.22-17.34,2.51-26.87,2.51-2.51,0-4.99-.02-7.38-.04-2.25-.02-4.41-.04-6.44-.04-1.71,0-3.33.01-4.82.05-5.95-.12-12.43-.17-19.83-.17-10.22,0-20.98.11-31.38.22-10.62.11-21.6.22-32.24.22Z"/>
    <path class="cls-1" d="M74.71,7c12.23,0,24.73.03,36.82.06,11.46.03,22.29.05,32.36.05,6.59,0,12.21-.01,17.17-.03,12.55.05,21.83.16,27.04,1.2,3.71.72,4.07,1.08,4.46,5.15.59,47.99.47,139.43.35,227.86-.07,51.77-.14,100.68-.06,139.21-.04.79-.06,1.6-.09,2.42-.14,4.67-.4,6.85-1.63,7.66-5.97,2.18-20.01,2.18-25.36,2.18-2.5,0-4.97-.02-7.36-.04-2.26-.02-4.43-.04-6.47-.04-1.87,0-3.44.01-4.82.05-5.94-.12-12.43-.17-19.82-.17-10.24,0-21.01.11-31.42.22-10.61.11-21.58.22-32.21.22-21.68,0-38.15-.5-51.78-1.57-1.64-.36-2.44-.74-2.85-1.05-2.68-44.91-2.09-142.94-1.57-229.56.33-54.31.64-105.61.06-135.27,0-1.17.01-2.29.02-3.37.01-5.56.03-10.8,1.26-12.37.69-.87,3.38-2.35,13.71-2.48,13.22-.22,29.81-.33,52.23-.33M74.71,0c-18.88,0-37.15.07-52.34.33C-.95.62.66,7.34.5,25.58c1.51,76.74-2.95,294.95,1.64,367.01,1.35,3.08,3.91,4.81,8.73,5.78,16.1,1.28,34.16,1.62,52.78,1.62,21.18,0,43.08-.44,63.64-.44,6.78,0,13.42.05,19.83.18,1.48-.03,3.1-.05,4.81-.05,4.2,0,8.98.07,13.83.07,10.92,0,22.24-.38,28.31-2.82l.06-.03c6.12-3.15,5.38-10.34,5.7-16.24-.21-104.76.65-291.76-.29-367.62-.62-6.67-2.52-10.17-10.12-11.65-5.88-1.17-15.3-1.28-28.38-1.33-5.31.02-11.06.03-17.16.03-20.79,0-45.46-.11-69.17-.11h0Z"/>
  </g>
  <line class="cls-3" x1="194.69" y1="199.53" x2="4.69" y2="199.53"/>
  <g>
    <path class="cls-2" d="M147.69,79.53c-15.16,0-27.5-12.34-27.5-27.5s12.34-27.5,27.5-27.5,27.5,12.34,27.5,27.5-12.34,27.5-27.5,27.5Z"/>
    <path class="cls-1" d="M147.69,28.03c13.23,0,24,10.77,24,24s-10.77,24-24,24-24-10.77-24-24,10.77-24,24-24M147.69,21.03c-17.12,0-31,13.88-31,31s13.88,31,31,31,31-13.88,31-31-13.88-31-31-31h0Z"/>
  </g>
  <g>
    <path class="cls-2" d="M52.69,178.53c-15.16,0-27.5-12.34-27.5-27.5s12.34-27.5,27.5-27.5,27.5,12.34,27.5,27.5-12.34,27.5-27.5,27.5Z"/>
    <path class="cls-1" d="M52.69,127.03c13.23,0,24,10.77,24,24s-10.77,24-24,24-24-10.77-24-24,10.77-24,24-24M52.69,120.03c-17.12,0-31,13.88-31,31s13.88,31,31,31,31-13.88,31-31-13.88-31-31-31h0Z"/>
  </g>
  <g>
    <path class="cls-2" d="M147.69,275.53c-15.16,0-27.5-12.34-27.5-27.5s12.34-27.5,27.5-27.5,27.5,12.34,27.5,27.5-12.34,27.5-27.5,27.5Z"/>
    <path class="cls-1" d="M147.69,224.03c13.23,0,24,10.77,24,24s-10.77,24-24,24-24-10.77-24-24,10.77-24,24-24M147.69,217.03c-17.12,0-31,13.88-31,31s13.88,31,31,31,31-13.88,31-31-13.88-31-31-31h0Z"/>
  </g>
  <g>
    <path class="cls-2" d="M52.69,375.53c-15.16,0-27.5-12.34-27.5-27.5s12.34-27.5,27.5-27.5,27.5,12.34,27.5,27.5-12.34,27.5-27.5,27.5Z"/>
    <path class="cls-1" d="M52.69,324.03c13.23,0,24,10.77,24,24s-10.77,24-24,24-24-10.77-24-24,10.77-24,24-24M52.69,317.03c-17.12,0-31,13.88-31,31s13.88,31,31,31,31-13.88,31-31-13.88-31-31-31h0Z"/>
  </g>
</svg>