<?xml version="1.0" encoding="iso-8859-1"?>
<!-- Uploaded to: SVG Repo, www.svgrepo.com, Generator: SVG Repo Mixer Tools -->
<svg height="800px" width="800px" version="1.1" id="Layer_1" xmlns="http://www.w3.org/2000/svg" xmlns:xlink="http://www.w3.org/1999/xlink" 
	 viewBox="0 0 486.962 486.962" xml:space="preserve">
<g transform="translate(1 1)">
	<g>
		<polygon style="fill:#FFA800;" points="360.24,452.378 433.553,423.186 360.24,225.689 		"/>
		<polygon style="fill:#FFA800;" points="125.155,32.584 51.842,61.776 125.155,259.273 		"/>
	</g>
	<polygon style="fill:#FFE100;" points="125.156,477.566 360.241,477.566 360.241,7.396 125.156,7.396 	"/>
	<path d="M360.027,250.877h-235.09c-4.637,0-8.396-3.759-8.396-8.396s3.759-8.396,8.396-8.396h235.089
		c4.641,0,8.396,3.759,8.396,8.396S364.667,250.877,360.027,250.877z"/>
	<path d="M200.501,301.469c0-9.395-7.178-17.01-16.574-17.01c-9.395,0-17.01,7.397-17.01,16.792s7.615,16.792,17.01,16.792
		C193.322,318.042,200.501,310.864,200.501,301.469"/>
	<path d="M318.044,360.24c0-9.395-7.178-17.01-16.573-17.01s-17.01,7.397-17.01,16.792s7.615,16.792,17.01,16.792
		C310.865,376.814,318.044,369.635,318.044,360.24"/>
	<path d="M200.501,360.24c0-9.395-7.178-17.01-16.574-17.01c-9.395,0-17.01,7.397-17.01,16.792s7.615,16.792,17.01,16.792
		C193.322,376.814,200.501,369.635,200.501,360.24"/>
	<path d="M200.501,419.011c0-9.395-7.178-17.01-16.574-17.01c-9.395,0-17.01,7.397-17.01,16.792s7.615,16.792,17.01,16.792
		C193.322,435.585,200.501,428.406,200.501,419.011"/>
	<path d="M318.044,301.469c0-9.395-7.178-17.01-16.573-17.01s-17.01,7.397-17.01,16.792s7.615,16.792,17.01,16.792
		C310.865,318.042,318.044,310.864,318.044,301.469"/>
	<path d="M318.044,419.011c0-9.395-7.178-17.01-16.573-17.01s-17.01,7.397-17.01,16.792s7.615,16.792,17.01,16.792
		C310.865,435.585,318.044,428.406,318.044,419.011"/>
	<path d="M200.501,66.384c0-9.395-7.178-17.01-16.574-17.01c-9.395,0-17.01,7.397-17.01,16.792s7.615,16.792,17.01,16.792
		C193.322,82.957,200.501,75.779,200.501,66.384"/>
	<path d="M200.501,183.836c0-9.395-7.178-17.01-16.574-17.01c-9.395,0-17.01,7.397-17.01,16.792s7.615,16.792,17.01,16.792
		C193.322,200.41,200.501,193.231,200.501,183.836"/>
	<path d="M318.044,66.384c0-9.395-7.178-17.01-16.573-17.01s-17.01,7.397-17.01,16.792s7.615,16.792,17.01,16.792
		C310.865,82.957,318.044,75.779,318.044,66.384"/>
	<path d="M318.044,183.836c0-9.395-7.178-17.01-16.573-17.01s-17.01,7.397-17.01,16.792s7.615,16.792,17.01,16.792
		C310.865,200.41,318.044,193.231,318.044,183.836"/>
	<path d="M360.027,460.774c-1.656,0-3.304-0.492-4.715-1.451c-2.304-1.558-3.681-4.165-3.681-6.945V225.689
		c0-4.063,2.911-7.543,6.912-8.265c4.009-0.726,7.937,1.533,9.355,5.342l73.308,197.504c1.591,4.272-0.525,9.035-4.764,10.716
		l-73.308,29.189C362.134,460.577,361.076,460.774,360.027,460.774z M368.422,272.432v167.565l54.188-21.572L368.422,272.432z"/>
	<path d="M124.933,267.669c-3.456,0-6.629-2.14-7.867-5.477L43.754,64.7c-1.587-4.276,0.529-9.035,4.764-10.724l73.312-29.193
		c2.587-1.033,5.51-0.717,7.818,0.853c2.304,1.562,3.686,4.165,3.686,6.949v226.689c0,4.067-2.911,7.543-6.912,8.265
		C125.921,267.628,125.425,267.669,124.933,267.669z M62.349,66.544l54.192,145.985V44.964L62.349,66.544z"/>
	<path d="M124.937,334.836c-4.637,0-8.396-3.755-8.396-8.396V7.396c0-4.637,3.759-8.396,8.396-8.396h235.089
		c4.641,0,8.396,3.759,8.396,8.396v67.167c0,4.637-3.755,8.396-8.396,8.396s-8.396-3.759-8.396-8.396V15.792H133.333V326.44
		C133.333,331.081,129.574,334.836,124.937,334.836z"/>
	<path d="M360.027,485.962h-235.09c-4.637,0-8.396-3.755-8.396-8.396v-83.959c0-4.641,3.759-8.396,8.396-8.396
		s8.396,3.755,8.396,8.396v75.563H351.63V141.73c0-4.637,3.755-8.396,8.396-8.396s8.396,3.759,8.396,8.396v335.836
		C368.422,482.207,364.667,485.962,360.027,485.962z"/>
	<path d="M133.334,360.024c0,4.635-3.761,8.396-8.396,8.396c-4.635,0-8.396-3.761-8.396-8.396s3.761-8.396,8.396-8.396
		C129.572,351.628,133.334,355.389,133.334,360.024"/>
	<path d="M368.419,108.147c0,4.635-3.761,8.396-8.396,8.396s-8.396-3.761-8.396-8.396s3.761-8.396,8.396-8.396
		S368.419,103.512,368.419,108.147"/>
</g>
</svg>